<svg xmlns="http://www.w3.org/2000/svg" viewBox="2.98691 77.6 583.3 150.1">
  <path d="M5.27 77.7C8.325 83.55 11.025 85.125 13.5 86.5 15.975 87.875 20.7 90.125 24 91.5 27.3 92.875 34.275 95.35 39.5 97 44.725 98.65 56.2 102.475 65 105.5 73.8 108.525 83.025 111.675 85.5 112.5 87.975 113.325 91.575 114.45 93.5 115 95.425 115.55 97.45 115.325 98 114.5 98.55 113.675 98.325 112.1 97.5 111 96.675 109.9 87.155 102.98 84 105 77.4 102.8 66.6 99.2 60 97 53.4 94.8 43.725 91.65 38.5 90 33.275 88.35 24.05 84.975 18 82.5 11.95 80.025 8.931 79.164 5 78M569.5 96.5C568.125 96.225 564.525 97.35 561.5 99 558.475 100.65 550.375 104.7 543.5 108 536.625 111.3 525.6 117.375 519 121.5 512.4 125.625 503.625 131.925 499.5 135.5 495.375 139.075 491.775 142.45 491.5 143 491.225 143.55 492.125 144.225 493.5 144.5 494.875 144.775 500.275 142.075 505.5 138.5 510.725 134.925 520.85 128.625 528 124.5 535.15 120.375 546.625 114.3 553.5 111 560.375 107.7 567.125 103.875 568.5 102.5 569.875 101.125 571.225 99.325 571.5 98.5 571.775 97.675 570.875 96.775 569.5 96.5M75 149C72.8 148.45 68.975 148.225 66.5 148.5 64.025 148.775 56.15 149 49 149 41.85 149 33.975 149.225 31.5 149.5 29.025 149.775 24.075 150 20.5 150 16.925 150 11.975 149.775 9.5 149.5 7.025 149.225 4.325 149.225 3.5 149.5 2.675 149.775 3.125 150.675 4.5 151.5 5.875 152.325 10.825 153.675 15.5 154.5 20.175 155.325 28.5 156 34 156 39.5 156 46.025 155.775 48.5 155.5 50.975 155.225 55.925 155.225 59.5 155.5 63.075 155.775 68.7 155.55 72 155 75.3 154.45 78.225 153.1 78.5 152 78.805 150.78 77.441 149.61 75 149M581 151.5C578.8 151.225 574.975 151.225 572.5 151.5 570.025 151.775 562.825 152.45 556.5 153 550.175 153.55 539.825 154.225 533.5 154.5 527.175 154.775 517.05 156.125 511 157.5 504.647 158.944 500.422 160.634 501 161.5 501.55 162.325 504.25 163.225 507 163.5 509.75 163.775 515.15 163.55 519 163 522.85 162.45 532.525 161.775 540.5 161.5 548.475 161.225 557.025 160.775 559.5 160.5 561.975 160.225 568.05 159.55 573 159 577.95 158.45 583.125 157.325 584.5 156.5 585.875 155.675 586.55 154.325 586 153.5 585.45 152.675 583.2 151.775 581 151.5M79 179C78.45 179 69.675 184.175 59.5 190.5 49.325 196.825 36.275 205.15 30.5 209 24.725 212.85 18.2 217.125 16 218.5L12 221 14.5 222C15.875 222.55 20.825 221.2 25.5 219 30.175 216.8 39.625 211.4 46.5 207 53.375 202.6 63.275 196.3 68.5 193 73.725 189.7 78.9 185.875 80 184.5 81.1 183.125 81.55 181.325 81 180.5 80.45 179.675 79.55 179 79 179M507.5 191C506.125 190.45 504.55 190.675 504 191.5 503.45 192.325 503.45 193.225 504 193.5 504.55 193.775 506.575 195.125 508.5 196.5 510.425 197.875 515.825 200.575 520.5 202.5 525.175 204.425 538 209.825 549 214.5 560 219.175 571.475 223.9 574.5 225 577.525 226.1 580.675 227.225 581.5 227.5 582.325 227.775 583.9 227.325 585 226.5 586.1 225.675 586.55 224.775 586 224.5 585.45 224.225 582.075 222.425 578.5 220.5 574.925 218.575 562.55 213.175 551 208.5 539.45 203.825 525.5 198.2 520 196 514.5 193.8 508.875 191.55 507.5 191" stroke="#f00" stroke-width=".1" fill="#000"/>
</svg>