<svg xmlns="http://www.w3.org/2000/svg" viewBox="-171.434 9.95375 510 234.1">
  <path
    d="m116.4 243.43c-0.17225-0.32742-0.57423-0.90935-0.89324-1.2932-0.52863-0.63603-1.2836-3.5512-1.6224-6.2649-0.13981-1.1199 0.70956-3.0715 1.5286-3.5122 0.34112-0.18351 1.0391-0.30956 1.5511-0.28008 0.76737 0.0441 1.0077-0.0763 1.3675-0.68541 0.31382-0.53125 1.6265-1.351 4.6698-2.9163 2.3283-1.1975 8.2614-4.3563 13.185-7.0195 8.8882-4.808 18.693-9.7675 25.428-12.861 1.9315-0.88736 3.5663-1.6134 3.6329-1.6134 0.0667 0 1.1263-0.47085 2.3548-1.0464 1.2285-0.5755 2.9869-1.3634 3.9077-1.7509 0.92075-0.38751 2.5075-1.0892 3.5262-1.5592 1.0186-0.47003 2.3283-1.0166 2.9104-1.2147s1.1774-0.44157 1.3229-0.54116c0.14552-0.0996 3.0626-1.3395 6.4823-2.7554 6.2791-2.5997 7.1719-3.0386 6.1811-3.0386-0.2966 0-1.9575-0.4268-3.6909-0.94845-4.3836-1.3192-4.5287-1.3601-6.4589-1.8189-2.0014-0.47572-2.8933-0.7203-5.424-1.4874-3.5534-1.0771-4.5086-1.343-6.0854-1.6937-0.87312-0.19426-2.2423-0.55094-3.0427-0.79264-0.80036-0.24167-1.8124-0.54195-2.249-0.66728-0.43657-0.12533-1.4486-0.42561-2.249-0.66728-0.80037-0.2417-2.1696-0.58862-3.0427-0.77094-0.87313-0.18233-2.7781-0.69641-4.2333-1.1424-1.4552-0.446-3.7174-1.1377-5.0271-1.5371-1.3097-0.39942-3.0956-0.87405-3.9688-1.0548-1.9307-0.39958-19.651-5.5931-24.077-7.0565-0.64524-0.21333-2.0313 0.0198-7.4083 1.2458-3.638 0.82955-7.3885 1.667-8.3344 1.8609-0.94589 0.19397-2.9104 0.60794-4.3656 0.91991s-2.8973 0.61759-3.2046 0.67918c-0.30731 0.0616-2.9267 0.59111-5.8208 1.1768-5.4357 1.1-6.886 1.3675-17.168 3.1666-5.2695 0.92205-14.17 2.3898-17.066 2.8143-0.50932 0.0746-1.2237 0.17976-1.5875 0.2336-0.3638 0.0538-1.2568 0.17301-1.9844 0.2649-0.7276 0.0919-1.9182 0.27641-2.6458 0.41008-0.7276 0.13369-2.7517 0.42984-4.4979 0.65807-1.7462 0.22826-5.3777 0.7076-8.0698 1.0652-2.6921 0.35761-7.0379 0.89305-9.6573 1.1898-2.6194 0.29678-5.1197 0.59055-5.5562 0.65283-1.089 0.15534-8.0787 0.87551-10.186 1.0495-0.94589 0.0781-2.9104 0.25956-4.3656 0.40323-3.1191 0.30797-4.3223 0.41095-9.2604 0.79264-2.0373 0.15748-4.2399 0.33075-4.8948 0.38507-0.65484 0.0543-2.5767 0.181-4.2707 0.28146-1.694 0.10049-3.48 0.21858-3.9688 0.26242-0.48878 0.0439-2.6746 0.16383-4.8574 0.26659-2.1828 0.10277-4.3855 0.21588-4.8948 0.25133-9.4989 0.6613-36.43 0.65029-46.302-0.0188-9.0972-0.61666-16.428-1.4067-21.96-2.3666-1.3824-0.23987-2.6921-0.46546-2.9104-0.50128-1.0614-0.1742-3.6595-0.74224-4.3656-0.95449-0.43656-0.1312-1.2105-0.3085-1.7198-0.39396-1.3669-0.22939-6.7452-2.0716-8.7834-3.0086-3.9161-1.8003-6.7247-4.0992-8.3119-6.8036-0.35079-0.5977-0.89525-2.1402-1.2099-3.4278-1.0978-4.4923-0.0499-7.6044 3.9814-11.824 4.4595-4.6677 13.311-9.9455 24.51-14.614 1.3097-0.54594 2.9051-1.2256 3.5454-1.5104 0.64026-0.28481 2.0095-0.8132 3.0427-1.1742 1.0332-0.36101 2.1167-0.7677 2.4078-0.90375 1.4831-0.69333 13.576-4.8102 18.521-6.3052 8.6106-2.6033 9.0974-2.7412 17.595-4.9868 8.933-2.3607 18.234-4.5983 25.665-6.174 1.2369-0.26231 2.5393-0.5853 2.8941-0.71776 0.6072-0.22664 0.56826-0.26827-0.66146-0.70714-0.71865-0.25661-2.0805-0.74568-3.0264-1.087-5.1687-1.8649-7.129-2.5543-8.2021-2.8842-1.6498-0.50734-6.5848-2.1569-9.1281-3.0512-3.1252-1.0989-6.7995-2.3019-9.7896-3.2053-1.4552-0.43967-3.5983-1.1388-4.7625-1.5537-2.1504-0.76636-10.18-3.35-12.832-4.1291-0.80036-0.23508-2.1696-0.69691-3.0427-1.0263-0.87312-0.32936-2.3019-0.80609-3.175-1.0594s-2.6591-0.81679-3.9688-1.2522c-1.3097-0.43543-4.0481-1.3084-6.0854-1.9399s-4.5376-1.4464-5.5562-1.8109c-3.6943-1.322-3.8204-1.3305-6.1322-0.41286-7.5434 2.9942-24.76 10.349-34.746 14.843-0.65484 0.2947-1.5478 0.69668-1.9844 0.89327-0.43656 0.19659-1.4486 0.64779-2.249 1.0027-0.80037 0.35488-1.991 0.88431-2.6458 1.1765-0.65484 0.29219-3.81 1.6836-7.0115 3.0921s-6.2971 2.781-6.8792 3.05c-5.1771 2.3932-8.3998 4.0026-12.7 6.3425-6.238 3.3943-5.8684 3.1731-6.7573 4.044-0.51071 0.50038-1.0175 0.72708-1.6229 0.72593-0.90288-2e-3 -0.88109 0.0203-2.3506-2.3707-0.49737-0.80927-1.0432-3.6784-1.0432-5.4834 0-1.5494 0.5867-2.2537 2.249-2.6996 0.58209-0.15614 3.3205-1.5971 6.0854-3.2022 4.3675-2.5354 11.96-6.4439 18.689-9.6209 3.5942-1.697 7.4668-3.5118 9.0925-4.261 1.7682-0.81484 4.2852-1.9996 8.9508-4.2131 1.7215-0.81674 3.1702-1.485 3.2193-1.485 0.0492 0 1.9149-0.8433 4.1461-1.874 2.2312-1.0307 4.533-2.0939 5.115-2.3626 1.3717-0.63326 3.5324-1.5919 5.6886-2.524 2.7411-1.1849 2.7434-1.1738-0.44454-2.1406-1.5745-0.47748-3.5771-1.1238-4.4503-1.4363-0.87312-0.31249-2.8972-0.96638-4.4979-1.4531-1.6007-0.48672-3.7439-1.1764-4.7625-1.5327-1.0186-0.35627-2.5665-0.84788-3.4396-1.0925-0.87312-0.24458-2.0042-0.62687-2.5135-0.84954-0.50932-0.22266-2.2439-0.79363-3.8545-1.2688-1.6107-0.47519-3.1585-0.99058-3.4396-1.1453-0.2811-0.15473-1.2255-0.48085-2.0986-0.72472-0.87312-0.24386-2.2423-0.67572-3.0427-0.95969-0.80036-0.28397-2.4672-0.8548-3.7042-1.2685-4.6645-1.5602-9.6781-3.3515-10.235-3.6571-0.31786-0.17432-0.71134-0.31694-0.87441-0.31694-0.16308 0-0.80334-0.23089-1.4228-0.5131-1.3788-0.62814-1.8018-1.4536-1.5787-3.0811 0.1321-0.96375 0.29872-1.2614 0.81632-1.4582 1.2866-0.48918 7.2831-1.3029 12.501-1.6965 1.2369-0.09329 3.3073-0.27431 4.6008-0.40226 1.2935-0.12796 2.4246-0.21711 2.5135-0.19811 0.16349 0.03493 3.9241-0.24536 6.1148-0.45574 0.65484-0.06289 2.8575-0.1875 4.8948-0.27691 2.0373-0.08941 3.9748-0.20517 4.3056-0.25725 0.33082-0.05208 3.6646-0.19136 7.4083-0.30952 11.948-0.37709 35.831-0.21657 46.891 0.31514 2.8435 0.1367 8.6293 0.39349 12.171 0.54018 1.6735 0.06931 3.9357 0.17604 5.0271 0.23718 7.3896 0.41395 9.6541 0.49879 13.891 0.52043 4.3311 0.02212 5.0621-0.04376 8.0698-0.72741 5.8996-1.3409 6.7157-1.4776 8.8811-1.4875 3.6171-0.01648 6.186 0.68101 6.2059 1.6849 0.0031 0.15934 0.3901 0.46832 0.8599 0.6866 0.90622 0.42106 1.0188 0.96437 0.57123 2.7572-0.21936 0.87874-1.6221 3.0636-1.9669 3.0636-0.1254 0-0.30641 0.24701-0.40222 0.54891-0.09582 0.3019-0.91334 1.3139-1.8167 2.249-1.5358 1.5896-1.719 1.7001-2.8202 1.7002-0.64772 6.7e-5 -2.9041 0.35162-5.0141 0.78124-2.1101 0.42961-4.2532 0.85146-4.7625 0.93742-4.1215 0.69567-11.344 2.0976-14.288 2.7734-1.9645 0.45098-4.1077 0.92872-4.7625 1.0616-1.2287 0.2494-6.1324 1.5091-11.268 2.8945-5.2033 1.4037-20.634 6.6017-19.679 6.6289 0.07814 2e-3 2.1617 0.60721 4.6302 1.3444 2.4685 0.73719 5.0835 1.5021 5.8111 1.6998s1.8587 0.53409 2.5135 0.7475 1.905 0.59592 2.7781 0.85001 2.3019 0.68965 3.175 0.96791c0.87312 0.27827 2.3614 0.6679 3.3073 0.86587 0.94589 0.19796 2.3746 0.55753 3.175 0.79905 0.80036 0.24152 1.8124 0.53972 2.249 0.66266 0.43656 0.12294 3.8269 1.1267 7.5341 2.2306 3.7072 1.1039 6.8958 2.0071 7.0859 2.0071 0.19005 0 2.1575 0.54667 4.3721 1.2148 4.8864 1.4742 5.1688 1.5548 7.3339 2.0924 2.5899 0.64315 3.336 0.84427 6.2177 1.6761 5.1283 1.4804 5.8119 1.5917 6.4754 1.0544 0.51484-0.4169 0.9821-0.45674 3.9306-0.33514 6.0301 0.24869 7.6994 0.66144 8.1273 2.0096 0.087056 0.27429 0.61722 0.73285 1.1781 1.019 1.264 0.64483 1.4108 1.0868 0.94513 2.8443-0.20244 0.76398-0.27569 1.3891-0.16279 1.3891 0.11291 0 1.7988-0.30031 3.7464-0.66735 3.8652-0.72843 19.539-3.376 22.723-3.8385 1.0914-0.15848 2.6988-0.3989 3.5719-0.53425 2.829-0.43858 8.9742-1.3407 9.7896-1.4372 0.43656-0.0516 3.175-0.40324 6.0854-0.78134 6.7786-0.88061 6.8485-0.88925 8.7312-1.079 0.87312-0.088 2.4209-0.26632 3.4396-0.39631 1.0186-0.13 2.6624-0.30977 3.6528-0.39949 0.99036-0.0897 2.0024-0.19984 2.249-0.24472 0.24656-0.0449 1.3413-0.1626 2.4327-0.26161 1.0914-0.099 2.4606-0.22493 3.0427-0.27981 0.58208-0.0549 2.0108-0.1708 3.175-0.25761 1.1642-0.0868 2.5334-0.21206 3.0427-0.27835 2.853-0.37131 15.369-1.2724 21.96-1.5811 1.819-0.0852 4.0217-0.2045 4.8948-0.26515 2.0843-0.14477 12.611-0.42305 19.447-0.51407l5.424-0.0722 0.0733-1.0305c0.10138-1.4264 0.54954-2.1901 1.7181-2.9277 0.92355-0.583 1.1975-0.62153 3.5732-0.50255 2.7572 0.13809 3.3101 0.20792 4.9542 0.62574 0.58209 0.14793 4.1037 0.34616 7.8259 0.44051 3.7222 0.0943 7.175 0.21504 7.6729 0.2682 0.49798 0.0532 2.3937 0.17466 4.2127 0.27 3.7566 0.19688 5.7169 0.3363 7.2629 0.51652 0.58931 0.0687 2.024 0.19542 3.1881 0.28162 1.1642 0.0862 2.2953 0.2074 2.5135 0.26936 0.21828 0.062 1.1112 0.17798 1.9844 0.25784 0.87313 0.0798 2.2424 0.25863 3.0427 0.3973 0.80037 0.13868 2.1696 0.321 3.0427 0.40516 0.87313 0.0842 1.8256 0.22558 2.1167 0.31425 0.29104 0.0887 0.76729 0.19601 1.0583 0.23855 0.29104 0.0425 0.88635 0.13019 1.3229 0.19478 0.43656 0.0646 1.3295 0.23634 1.9844 0.38165 0.65485 0.14532 1.813 0.39144 2.5737 0.54694 2.2184 0.45347 8.8815 2.4429 9.5216 2.8429 0.32231 0.20141 0.76313 0.3662 0.97962 0.3662 0.38856 0 3.6905 1.6585 5.1111 2.5672 1.9837 1.2689 4.9096 4.3034 5.6884 5.8995 2.9676 6.0823-3.6629 16.13-15.275 23.149-9.4357 5.7028-23.163 11.328-42.466 17.401-3.6407 1.1455-3.0654 1.154 4.2333 0.0629 2.2556-0.33722 4.875-0.70589 5.8208-0.81929 0.94589-0.1134 1.7793-0.21957 1.8521-0.23593 0.17548-0.0394 3.0002-0.39338 4.4979-0.56361 0.65484-0.0744 1.3692-0.18264 1.5875-0.24043 0.21828-0.0578 1.647-0.2296 3.175-0.38176 1.528-0.15217 3.0564-0.33031 3.3966-0.39587 0.34017-0.0656 1.8284-0.2471 3.3073-0.40339 1.4788-0.15631 3.1055-0.33573 3.6148-0.39873 1.1881-0.14694 5.787-0.62544 7.6729-0.79835 0.80036-0.0734 3.7174-0.36674 6.4823-0.65193 7.1351-0.73597 30.493-2.7724 38.1-3.3217 1.0186-0.0735 2.3879-0.18687 3.0427-0.2518 2.4181-0.23979 6.2316-0.50342 15.214-1.0517 1.0186-0.0622 4.3524-0.18923 7.4083-0.28234 3.0559-0.0931 6.4551-0.20833 7.5538-0.25609 1.0987-0.0477 4.9155-0.17171 8.4818-0.27551 3.5664-0.10377 6.8318-0.20344 7.2566-0.22148 0.52639-0.0225 0.80015 0.10739 0.85979 0.40759 0.10904 0.5488-0.10017 0.61304-4.1759 1.2825-1.819 0.29874-5.2123 0.89929-7.5406 1.3345-6.1187 1.1437-8.2965 1.5219-9.7896 1.6998-0.7276 0.0867-1.5015 0.20836-1.7198 0.27038-0.65863 0.18708-7.5344 1.1688-11.123 1.5882-3.2466 0.37939-9.4464 0.811-22.876 1.5925-1.3097 0.0762-3.1552 0.1963-4.101 0.26686-0.94589 0.0705-2.8509 0.18494-4.2333 0.25419-1.3824 0.0693-3.347 0.18708-4.3656 0.2618-1.0186 0.0747-2.745 0.19212-3.8365 0.26083-1.0914 0.0687-3.0559 0.1924-4.3656 0.27487-1.3097 0.0825-4.5839 0.32698-7.276 0.5433-2.6921 0.21632-5.7282 0.45532-6.7469 0.53107-1.0186 0.0758-2.3879 0.18574-3.0427 0.2444-0.65484 0.0587-2.0836 0.17862-3.175 0.26656-1.0914 0.088-2.5202 0.21323-3.175 0.27835-0.65485 0.0651-2.5003 0.24087-4.101 0.39055-3.2884 0.30752-14.451 1.4498-17.859 1.8276-4.6489 0.51525-5.2041 0.57986-7.0115 0.81574-1.0186 0.13295-2.5069 0.31306-3.3073 0.40026-1.4891 0.16224-1.989 0.2281-3.8365 0.50541-0.58208 0.0874-1.5346 0.20905-2.1167 0.2704-1.6654 0.17555-10.543 1.3956-13.811 1.8981-1.6296 0.25056-2.9108 0.53981-2.8472 0.64278 0.0999 0.16158 1.1272 0.43061 2.5028 0.6554 0.66751 0.10909 4.0231 0.93268 5.424 1.3312 0.72761 0.20701 1.8587 0.48797 2.5136 0.62437 0.65484 0.13639 1.6669 0.3815 2.249 0.54472 0.58209 0.16325 1.4155 0.3415 1.8521 0.39614 0.43656 0.0546 1.5336 0.34689 2.4378 0.64947 0.90424 0.30258 1.7377 0.52133 1.8521 0.48614 0.11438-0.0352 1.22 0.20723 2.4569 0.5387 2.5968 0.6959 5.275 1.3694 8.4667 2.1292 1.2369 0.29442 2.7847 0.67101 3.4396 0.83685 0.65485 0.16584 2.0836 0.52009 3.175 0.78721 1.0914 0.26715 2.4606 0.62283 3.0427 0.79042 0.58209 0.16761 1.5941 0.40444 2.249 0.52633 0.65484 0.12192 1.7264 0.40934 2.3812 0.63871 0.65485 0.22939 1.4227 0.41881 1.7064 0.42092 0.28364 3e-3 1.6528 0.31377 3.0427 0.69255 1.3898 0.37878 3.42 0.90882 4.5114 1.1779 1.0914 0.26905 2.9964 0.76041 4.2333 1.0919 1.2369 0.33147 2.3453 0.57298 2.463 0.53668 0.11774-0.0363 0.77259 0.12499 1.4552 0.3584 0.68265 0.23342 2.2532 0.659 3.4902 0.94576 1.2369 0.28675 3.1679 0.73363 4.2911 0.99303l2.0422 0.47167 2.4557-0.98959c4.5223-1.8224 10.109-4.0147 10.385-4.0751 0.15005-0.0328 0.57047-0.18187 0.93427-0.33118 0.94763-0.38891 5.2266-1.9836 10.583-3.9441 2.5466-0.93204 4.8683-1.8024 5.1594-1.9341 0.29104-0.13173 1.4221-0.53782 2.5135-0.90241 1.0914-0.36457 4.187-1.4535 6.8792-2.4197 2.6921-0.96629 5.9068-2.0967 7.1438-2.512 1.2369-0.41537 5.0469-1.727 8.4667-2.9148 8.2547-2.8671 17.68-6.043 30.629-10.32 5.8592-1.9353 10.619-3.5528 10.577-3.5945-0.0417-0.0417-0.84693-0.0975-1.7895-0.12401-0.94258-0.0266-1.9672-0.20561-2.2769-0.39788-0.54465-0.33817-0.95644-1.7238-0.64696-2.177 0.38182-0.5591 4.6686-1.2078 14.439-2.1852 2.8301-0.28307 3.7135-0.38745 6.6146-0.78165 1.0186-0.13843 4.3524-0.49679 7.4083-0.79635 3.0559-0.29957 6.2706-0.6813 7.1438-0.84829 0.87312-0.16699 3.3425-0.31138 5.4875-0.32086l3.9-0.0172 0.67482 0.72761c0.37113 0.40018 0.77631 0.7276 0.90037 0.7276 0.87638 0 0.32044 2.5303-0.82547 3.757-0.40944 0.43831-0.74443 0.85024-0.74443 0.91538 0 0.0651-0.32742 0.53705-0.72761 1.0487-0.84822 1.0845-1.7875 1.6294-3.6318 2.1072-0.73099 0.18936-2.2816 0.58994-3.4458 0.89019-1.1642 0.30027-3.4264 0.78166-5.0271 1.0698-2.4259 0.43661-4.3215 0.87992-9.6573 2.2583-0.95025 0.24548-6.1547 1.797-8.3344 2.4846-1.3097 0.41314-3.6136 1.1324-5.1199 1.5982-1.5062 0.46588-5.733 1.8325-9.3927 3.037-3.6598 1.2045-8.6782 2.8556-11.152 3.6692-13.151 4.3251-43.65 14.738-48.154 16.44-1.0186 0.38502-2.5069 0.92022-3.3073 1.1893-2.5288 0.85023-8.8443 3.1967-9.323 3.4638-0.25271 0.14102-0.66347 0.25641-0.91282 0.25641-1.3346 0 1.1935 0.92022 4.8118 1.7515 3.4004 0.78121 9.5963 2.3091 11.112 2.7403 0.58209 0.16555 1.4155 0.3455 1.8521 0.39992 0.43656 0.0544 1.5081 0.34229 2.3812 0.63976 0.87312 0.29748 1.8256 0.54343 2.1167 0.54653 0.29105 3e-3 1.3626 0.23815 2.3812 0.52231 1.0186 0.28414 3.8762 1.0031 6.35 1.5977 2.4739 0.59457 5.0932 1.2482 5.8208 1.4525 0.7276 0.20428 1.7992 0.44722 2.3812 0.53985 0.58208 0.0926 1.356 0.27948 1.7198 0.41521 0.3638 0.13574 1.4354 0.41762 2.3812 0.62646 3.1568 0.69696 5.4089 1.2588 7.0723 1.7644 0.90657 0.27551 1.74 0.47468 1.8521 0.44262 0.11205-0.0321 1.0372 0.15494 2.0558 0.4156 1.0186 0.2607 2.553 0.65405 3.4097 0.87416 0.85664 0.22011 1.9282 0.44702 2.3812 0.50422 0.45302 0.0572 1.1213 0.22238 1.4851 0.36705 0.63577 0.25284 3.6531 0.97581 5.0271 1.2046 0.3638 0.0606 1.1972 0.24598 1.8521 0.41203 0.65484 0.16608 1.3692 0.32655 1.5875 0.35663 0.21828 0.0301 0.85066 0.15116 1.4053 0.26906 0.85357 0.18145 1.0893 0.12745 1.5357-0.35163 0.49102-0.52705 0.70382-0.5551 3.0926-0.40778 1.4109 0.087 3.2202 0.28258 4.0206 0.43455 0.80036 0.15201 2.1189 0.35304 2.9302 0.44675 1.6568 0.1914 2.8018 0.81759 3.1448 1.7198 0.12679 0.33349 0.59772 0.75841 1.0465 0.94433 0.82905 0.34337 0.94301 0.60976 0.83556 1.953-0.0721 0.90191-0.91818 2.9534-1.3206 3.2021-0.15759 0.0974-0.28649 0.41108-0.28649 0.69715 0 0.31131-0.26551 0.62106-0.66146 0.77158-0.38373 0.14589-0.66146 0.46159-0.66146 0.75187 0 0.27522-0.82608 1.3497-1.8357 2.3878-1.3422 1.38-2.0357 1.8995-2.5797 1.9323-1.5601 0.0942-2.5165-0.0611-3.5158-0.57087-0.56872-0.29014-1.1925-0.46675-1.3861-0.39243-0.20529 0.0788-0.56083-0.2255-0.85296-0.73003-0.27554-0.47583-0.83839-1.2562-1.2508-1.7342-0.4124-0.478-0.74982-1.0436-0.74982-1.2568 0-0.21323-0.0343-0.38767-0.0761-0.38767-0.0419 0-1.1432-0.37436-2.4474-0.8319-1.3042-0.45755-2.7284-0.92372-3.165-1.0359-0.43656-0.11219-4.8419-1.4121-9.7896-2.8888-9.3252-2.7831-13.719-4.05-15.081-4.3483-0.85151-0.18648-3.2828-0.86585-4.3656-1.2199-0.3638-0.11896-1.3758-0.42119-2.249-0.67162-0.87312-0.25045-2.4805-0.73189-3.5719-1.0698s-3.175-0.9063-4.6302-1.263c-1.4552-0.35666-4.4318-1.1772-6.6146-1.8233-2.1828-0.64614-4.9212-1.4124-6.0854-1.7028-1.1642-0.2904-3.9026-1.0326-6.0854-1.6493-11.402-3.2214-14.984-4.2141-16.669-4.6204l-1.8521-0.44656-5.424 2.1453c-2.9832 1.1799-5.6621 2.2531-5.9531 2.3847-0.29104 0.13166-1.7793 0.72821-3.3073 1.3257-1.528 0.59746-3.4925 1.3884-4.3656 1.7577-0.87313 0.36925-1.8256 0.76501-2.1167 0.87945-0.29104 0.11443-0.94588 0.38798-1.4552 0.60788-0.50932 0.21992-2.5929 1.0763-4.6302 1.903-2.0373 0.82677-4.0614 1.6787-4.4979 1.8932-0.43657 0.2145-1.7591 0.79148-2.939 1.2822-1.1799 0.49069-3.0638 1.3164-4.1865 1.835-1.1227 0.51856-2.0862 0.94285-2.1411 0.94285-0.11136 0-5.7091 2.5428-9.7833 4.4442-4.5007 2.1003-14.552 7.242-20.915 10.699-3.34 1.8147-6.9657 3.7449-8.0571 4.2894-4.183 2.0871-5.2586 2.8269-7.726 5.3145-2.2386 2.2568-2.5806 2.5048-3.4554 2.5048-0.73758 0-1.0461-0.14301-1.284-0.59531zm-149.99-54.03c3.1287-0.0927 6.4624-0.21614 7.4083-0.27438 0.94589-0.0583 3.2676-0.17833 5.1594-0.26683s4.0349-0.20944 4.7625-0.26876c0.7276-0.0593 2.3945-0.1754 3.7042-0.25795 3.1063-0.19579 8.9048-0.6301 10.583-0.79274 0.7276-0.0705 2.1564-0.19439 3.175-0.27535 5.2626-0.41826 18.686-1.7995 24.121-2.482 2.3042-0.28938 4.7848-0.59182 5.5124-0.67215 0.7276-0.0803 2.1564-0.25934 3.175-0.39785 1.0186-0.13849 2.3879-0.31592 3.0427-0.39426 0.65484-0.0783 2.4408-0.32366 3.9688-0.54515 1.528-0.22151 3.6711-0.52459 4.7625-0.67352 1.0914-0.14893 3.4131-0.50297 5.1594-0.78679 1.7462-0.28379 5.5562-0.87837 8.4667-1.3212s6.899-1.1029 8.8635-1.4667c1.9645-0.3638 3.9886-0.72768 4.4979-0.80862 0.50932-0.0809 2.4739-0.44135 4.3656-0.80089 1.8918-0.35955 4.0349-0.75563 4.7625-0.88017 1.4567-0.24934 13.164-2.6181 16.933-3.4262 5.0077-1.0736 14.481-3.2728 19.05-4.4224 2.6194-0.65907 4.9411-1.2398 5.1594-1.2904 0.76195-0.17682 10.203-2.7405 12.171-3.3051 1.0914-0.31305 2.4011-0.68503 2.9104-0.82655 7.218-2.006 25.721-8.2027 30.295-10.146 0.43656-0.18547 2.5797-1.0821 4.7625-1.9926 15.324-6.3919 25.346-13.025 28.342-18.76 0.3062-0.58602 0.25654-0.69788-0.61846-1.3932-2.5846-2.054-8.3497-4.3221-14.362-5.6503-1.0914-0.24112-2.4011-0.54422-2.9104-0.67356-2.2296-0.56621-11.234-1.806-16.206-2.2312-3.6639-0.31339-4.4643-0.37117-7.3422-0.53-1.6735-0.0924-3.7571-0.21828-4.6302-0.27982-0.87313-0.0615-5.5429-0.12375-10.377-0.13822-8.4482-0.0253-8.8162-5e-3 -9.4713 0.50979-1.0384 0.81683-2.0534 0.94552-2.9857 0.37857-1.2502-0.76027-2.9175-3.1605-3.1163-4.4861-0.0946-0.63089-0.27032-1.2078-0.39047-1.2821-0.12012-0.0743-2.1007-0.013-4.4012 0.13608-2.3005 0.1491-5.1948 0.33386-6.4318 0.41058-5.3356 0.33096-13.294 0.93194-17.33 1.3087-0.72761 0.0679-2.8112 0.25052-4.6302 0.40579-1.819 0.15526-4.2598 0.39063-5.424 0.52303s-3.0096 0.31029-4.101 0.3953c-1.0914 0.085-2.282 0.20762-2.6458 0.27247-0.3638 0.0649-1.4354 0.18357-2.3812 0.26382-2.1985 0.18654-6.2476 0.63136-7.276 0.79931-0.43656 0.0713-1.3295 0.17818-1.9844 0.23753-0.65484 0.0593-2.7306 0.30256-4.6128 0.54049-1.8822 0.23792-3.8467 0.47826-4.3656 0.53409-0.5189 0.0558-1.3602 0.16499-1.8695 0.2426-0.50932 0.0776-3.6049 0.50275-6.8792 0.94478-3.2742 0.44202-6.727 0.92221-7.6729 1.0671-0.94588 0.14487-3.6843 0.562-6.0854 0.92695s-5.3777 0.83506-6.6146 1.0447c-1.2369 0.20962-2.7252 0.44955-3.3073 0.53319-0.58208 0.0836-2.368 0.38786-3.9688 0.67607-1.6007 0.28821-6.5418 1.1729-10.98 1.9661-9.423 1.6839-8.3767 1.488-14.42 2.6997-2.6194 0.52522-4.917 0.95837-5.1059 0.96254-0.18888 4e-3 -0.69371 0.44986-1.1218 0.99042-1.4607 1.8443-3.3424 2.2898-5.1218 1.2127l-1.0308-0.62395-2.6734 0.59026c-6.4966 1.4344-10.991 2.506-20.533 4.8959-5.7661 1.4442-6.6702 1.6882-15.214 4.106-8.4928 2.4036-16.499 4.9501-24.342 7.7427-3.3731 1.201-4.1977 1.5122-5.8208 2.1964-0.29104 0.12269-2.0598 0.82648-3.9305 1.564-6.2411 2.4604-10.985 4.7226-17.368 8.2824-1.8072 1.0078-5.7835 3.5498-6.2123 3.9714-0.17517 0.17222-0.71945 0.61079-1.2095 0.97459-1.7694 1.3135-2.9389 2.491-3.6079 3.6325-0.59355 1.0128-0.66451 1.3776-0.54868 2.8205 0.17068 2.1263 1.0645 3.5194 3.2278 5.0306 1.6904 1.1809 5.4591 3.0686 6.1263 3.0686 0.21637 0 0.83514 0.22077 1.375 0.49059s1.8151 0.69463 2.8337 0.94403 2.5069 0.61913 3.3073 0.82161c2.7674 0.70017 9.4068 1.8766 11.906 2.1096 0.80036 0.0746 1.8124 0.19611 2.249 0.26995 0.9438 0.15962 2.2091 0.27514 7.1438 0.65217 2.0373 0.15563 4.2995 0.33581 5.0271 0.40037 0.7276 0.0646 4.1209 0.1964 7.5406 0.293s6.2463 0.19801 6.2812 0.22537c0.12757 0.10001 15.973-0.0784 21.5-0.24214zm-58.763-95.528c9.0353-3.7752 23.73-9.0809 30.85-11.139l1.5875-0.45887-1.1906-0.18746c-0.65484-0.1031-2.5598-0.27133-4.2333-0.37383-1.6735-0.1025-3.6348-0.22763-4.3584-0.27807-0.72365-0.05043-2.6882-0.16856-4.3656-0.26249-1.6774-0.09394-3.5262-0.2086-4.1082-0.2548-0.58208-0.0462-2.8443-0.17089-5.0271-0.27709-2.1828-0.10619-4.445-0.22323-5.0271-0.26008-9.6214-0.60912-35.117-0.60427-52.255 0.0099-1.3824 0.04955-4.5971 0.10861-7.1438 0.13126-4.1112 0.03655-4.5264 0.07943-3.7042 0.38244 1.6014 0.59014 3.7462 1.1962 4.2333 1.1962 0.25762 0 1.0476 0.1758 1.7556 0.39066 0.70793 0.21486 2.1206 0.64364 3.1392 0.95283 3.5272 1.0706 4.5052 1.343 6.0854 1.6945 0.87313 0.19425 2.2424 0.55093 3.0427 0.79262 0.80037 0.24168 1.8124 0.54196 2.249 0.66729s1.3891 0.40588 2.1167 0.62345c0.7276 0.21757 3.466 1.0053 6.0854 1.7505 14.697 4.1811 18.527 5.2989 22.093 6.4478 1.0914 0.35163 2.1653 0.65372 2.3865 0.6713 0.22116 0.0176 2.8266-0.98104 5.7899-2.2192zm264.47-83.491c-0.0959-0.1552-0.11766-0.33893-0.0483-0.40829 0.0694-0.069355 0.19661 0.057628 0.28279 0.28219 0.17891 0.46622 0.0265 0.54823-0.23448 0.1261z"
    fill="#555" />
</svg>